HIERARCHY
ROOT joint_Root
{
	OFFSET 0.0 0.0 0.0
	CHANNELS 6 Xposition Yposition Zposition Zrotation Xrotation Yrotation 
	JOINT Hips
	{
		OFFSET 4.5925 91.4895 -427.239
		CHANNELS 6 Xposition Yposition Zposition Zrotation Xrotation Yrotation 
		JOINT Spine
		{
			OFFSET 15.7357 0.0 0.0
			CHANNELS 6 Xposition Yposition Zposition Zrotation Xrotation Yrotation 
			JOINT Chest
			{
				OFFSET 8.98455 -0.406207 0.0
				CHANNELS 6 Xposition Yposition Zposition Zrotation Xrotation Yrotation 
				JOINT Neck
				{
					OFFSET 16.3773 0.0 0.0
					CHANNELS 6 Xposition Yposition Zposition Zrotation Xrotation Yrotation 
					JOINT Head
					{
						OFFSET 6.45672 0.0 0.0
						CHANNELS 6 Xposition Yposition Zposition Zrotation Xrotation Yrotation 
						End Site
						{
							OFFSET 0.0 0.0 0.0
						}
					}
				}
				JOINT Shoulder_L
				{
					OFFSET 12.9942 -0.242716 4.98039
					CHANNELS 6 Xposition Yposition Zposition Zrotation Xrotation Yrotation 
					JOINT UpperArm_L
					{
						OFFSET 5.34809 0.0 0.0
						CHANNELS 6 Xposition Yposition Zposition Zrotation Xrotation Yrotation 
						JOINT LowerArm_L
						{
							OFFSET 24.3286 1.87007e-05 0.0
							CHANNELS 6 Xposition Yposition Zposition Zrotation Xrotation Yrotation 
							JOINT Hand_L
							{
								OFFSET 22.2916 0.0 0.0
								CHANNELS 6 Xposition Yposition Zposition Zrotation Xrotation Yrotation 
								End Site
								{
									OFFSET 0.0 0.0 0.0
								}
							}
						}
					}
				}
				JOINT Shoulder_R
				{
					OFFSET 12.9945 -0.242716 -4.98039
					CHANNELS 6 Xposition Yposition Zposition Zrotation Xrotation Yrotation 
					JOINT UpperArm_R
					{
						OFFSET -5.34813 0.0 0.0
						CHANNELS 6 Xposition Yposition Zposition Zrotation Xrotation Yrotation 
						JOINT LowerArm_R
						{
							OFFSET -24.3289 0.000322201 0.0
							CHANNELS 6 Xposition Yposition Zposition Zrotation Xrotation Yrotation 
							JOINT Hand_R
							{
								OFFSET -22.2915 -0.000108084 0.0
								CHANNELS 6 Xposition Yposition Zposition Zrotation Xrotation Yrotation 
								End Site
								{
									OFFSET 0.0 0.0 0.0
								}
							}
						}
					}
				}
			}
		}
		JOINT UpperLeg_L
		{
			OFFSET -2.19248 -6.46944 0.0
			CHANNELS 6 Xposition Yposition Zposition Zrotation Xrotation Yrotation 
			JOINT LowerLeg_L
			{
				OFFSET 39.0811 0.0 -1.23785e-05
				CHANNELS 6 Xposition Yposition Zposition Zrotation Xrotation Yrotation 
				JOINT Foot_L
				{
					OFFSET 40.9854 0.0 -1.26872e-05
					CHANNELS 6 Xposition Yposition Zposition Zrotation Xrotation Yrotation 
					JOINT Toes_L
					{
						OFFSET 11.7543 0.0 0.0
						CHANNELS 6 Xposition Yposition Zposition Zrotation Xrotation Yrotation 
						End Site
						{
							OFFSET 0.0 0.0 0.0
						}
					}
				}
			}
		}
		JOINT UpperLeg_R
		{
			OFFSET -2.19251 6.46944 0.0
			CHANNELS 6 Xposition Yposition Zposition Zrotation Xrotation Yrotation 
			JOINT LowerLeg_R
			{
				OFFSET -39.0811 -0.00228153 -0.0401928
				CHANNELS 6 Xposition Yposition Zposition Zrotation Xrotation Yrotation 
				JOINT Foot_R
				{
					OFFSET -40.9854 0.0 0.0
					CHANNELS 6 Xposition Yposition Zposition Zrotation Xrotation Yrotation 
					JOINT Toes_R
					{
						OFFSET -11.7543 0.0 0.0
						CHANNELS 6 Xposition Yposition Zposition Zrotation Xrotation Yrotation 
						End Site
						{
							OFFSET 0.0 0.0 0.0
						}
					}
				}
			}
		}
	}
}
MOTION
Frames:	4
Frame Time:	0.0333333
0.000000 0.000000 0.000000 0.000000 0.000000 -0.000000 115.794000 89.737000 155.777000 98.529700 -35.833000 5.429770 15.735700 0.000005 -0.000001 96.338000 84.900300 -96.772200 8.984550 -0.406207 -0.000000 2.375910 1.145480 -0.891327 16.377300 -0.000001 -0.000001 -1.221040 -15.044700 4.703410 6.456720 -0.000001 -0.000000 -4.630790 -22.243700 10.798900 12.994200 -0.242716 4.980390 -90.536700 1.823080 -73.594500 5.348090 -0.000007 -0.000001 -77.530200 22.567600 7.494600 24.328600 0.000019 0.000005 0.136181 30.602900 -0.267536 22.291600 -0.000001 0.000005 3.794210 5.093010 5.273800 12.994500 -0.242716 -4.980390 89.140400 7.042500 -83.022900 -5.348130 -0.000001 -0.000004 -54.730100 43.512900 -37.933000 -24.328900 0.000322 -0.000009 1.641380 1.366250 -50.259000 -22.291500 -0.000108 -0.000004 18.185900 5.440710 -4.310040 -2.192480 -6.469440 -0.000000 -179.816000 -7.984610 -22.671200 39.081100 -0.000007 -0.000012 -0.059049 0.128805 24.628400 40.985400 -0.000006 -0.000013 -7.634050 8.957400 -61.060300 11.754300 -0.000000 0.000003 -0.006351 -0.074000 -19.588800 -2.192510 6.469440 -0.000001 -178.036000 -2.627110 -174.458000 -39.081100 -0.002282 -0.040193 0.041379 -0.060876 32.028000 -40.985400 0.000008 0.000006 28.952300 19.185500 -70.177400 -11.754300 -0.000006 -0.000006 -0.065691 -0.349841 -31.042400
0.000000 0.000000 0.000000 0.000000 0.000000 -0.000000 114.085000 88.851700 159.006000 98.559400 -36.140400 5.797100 15.735700 0.000005 -0.000001 97.230800 84.777600 -97.710800 8.984550 -0.406207 -0.000000 2.602050 1.335150 -0.989433 16.377300 -0.000001 -0.000001 -1.292430 -15.701700 4.045620 6.456720 -0.000001 -0.000000 -4.730480 -23.233500 10.788400 12.994200 -0.242716 4.980390 -90.492000 1.676180 -73.639400 5.348090 -0.000007 -0.000001 -77.274200 22.615100 8.125620 24.328600 0.000019 0.000005 0.000013 32.299400 -0.000003 22.291600 -0.000001 0.000005 2.844070 5.050520 6.225760 12.994500 -0.242716 -4.980390 89.077700 7.150740 -82.630900 -5.348130 -0.000001 -0.000004 -54.846200 43.494000 -35.642900 -24.328900 0.000322 -0.000009 0.857471 0.527520 -58.452000 -22.291500 -0.000108 -0.000004 19.593900 5.463980 -5.146600 -2.192480 -6.469440 -0.000000 175.362000 -11.269200 -27.458600 39.081100 -0.000007 -0.000012 -0.003690 0.006255 30.539800 40.985400 -0.000006 -0.000013 -1.337570 15.586100 -64.208300 11.754300 -0.000000 0.000003 -0.006862 -0.078483 -19.771700 -2.192510 6.469440 -0.000001 -178.688000 -1.516830 -172.813000 -39.081100 -0.002282 -0.040193 0.044448 -0.060986 34.012300 -40.985400 0.000008 0.000006 29.784700 20.051900 -70.577000 -11.754300 -0.000006 -0.000006 -0.087272 -0.411814 -33.703000
0.000000 0.000000 0.000000 0.000000 0.000000 -0.000000 112.055000 87.775900 162.561000 99.646700 -36.711500 6.690410 15.735700 0.000005 -0.000001 100.010000 84.755500 -100.885000 8.984550 -0.406207 -0.000000 2.579390 1.861240 -1.791320 16.377300 -0.000001 -0.000001 -0.721378 -15.954100 3.924300 6.456720 -0.000001 -0.000000 -4.779180 -23.900600 10.435000 12.994200 -0.242716 4.980390 -90.609300 1.990260 -72.975400 5.348090 -0.000007 -0.000001 -75.911400 23.114700 7.827190 24.328600 0.000019 0.000005 0.000073 34.190400 -0.000004 22.291600 -0.000001 0.000005 2.969010 5.002080 7.274820 12.994500 -0.242716 -4.980390 88.932300 7.942200 -82.318000 -5.348130 -0.000001 -0.000004 -53.970700 43.700700 -32.858500 -24.328900 0.000322 -0.000009 -0.596222 -0.276045 -65.088700 -22.291500 -0.000108 -0.000004 20.666900 5.489740 -6.125180 -2.192480 -6.469440 -0.000000 173.451000 -8.633410 -29.279800 39.081100 -0.000007 -0.000012 0.042887 -0.063312 34.112900 40.985400 -0.000006 -0.000013 1.035680 18.177000 -56.631000 11.754300 -0.000000 0.000003 -0.007722 -0.085759 -20.068700 -2.192510 6.469440 -0.000001 179.327000 0.162074 -172.235000 -39.081100 -0.002282 -0.040193 0.023665 -0.026133 37.951900 -40.985400 0.000008 0.000006 30.474200 21.943300 -70.218300 -11.754300 -0.000006 -0.000006 -0.124334 -0.501314 -37.631100
0.000000 0.000000 0.000000 0.000000 0.000000 -0.000000 109.301000 86.400600 166.343000 100.407000 -38.532000 8.484780 15.735700 0.000005 -0.000001 104.083000 84.468600 -105.374000 8.984550 -0.406207 -0.000000 2.999440 2.742870 -2.650850 16.377300 -0.000001 -0.000001 0.003662 -15.616900 4.135050 6.456720 -0.000001 -0.000000 -3.898310 -23.958200 10.516600 12.994200 -0.242716 4.980390 -90.843800 2.522800 -71.501200 5.348090 -0.000007 -0.000001 -73.575300 22.315200 7.456010 24.328600 0.000019 0.000005 0.000012 34.972700 -0.000004 22.291600 -0.000001 0.000005 4.266750 4.983140 7.676290 12.994500 -0.242716 -4.980390 88.748400 8.902310 -81.963800 -5.348130 -0.000001 -0.000004 -52.112900 45.038800 -31.120300 -24.328900 0.000322 -0.000009 -1.823770 -0.715626 -68.566000 -22.291500 -0.000108 -0.000004 21.107500 5.515530 -7.173220 -2.192480 -6.469440 -0.000000 175.380000 -0.894363 -29.353400 39.081100 -0.000007 -0.000012 -0.117880 0.127183 42.826500 40.985400 -0.000006 -0.000013 -0.747289 9.286500 -62.166300 11.754300 -0.000000 0.000003 -0.000054 -0.000606 -16.601000 -2.192510 6.469440 -0.000001 177.327000 1.366970 -172.341000 -39.081100 -0.002282 -0.040193 -0.008396 0.011831 44.587800 -40.985400 0.000008 0.000006 28.107000 25.628600 -66.790500 -11.754300 -0.000006 -0.000006 -0.165747 -0.584922 -41.414500
